<svg width="245" height="253" viewBox="0 0 245 253" fill="none" xmlns="http://www.w3.org/2000/svg">
<path d="M42.0716 0.129042C34.0716 -0.870958 34.5716 4.12904 34.0716 8.62904C35.5716 17.129 34.0716 25.129 34.0716 29.129C34.0716 32.329 28.4049 46.4624 25.5716 53.129C15.0716 67.629 24.5716 83.629 25.5716 87.129C26.3716 89.929 41.5716 101.296 49.0716 106.629C45.0716 106.629 25.4049 99.629 16.0716 96.129C10.0716 94.529 8.23825 100.796 8.07159 104.129C9.07159 155.129 44.3361 159.107 46.5716 160.129C49.5715 161.5 58.4049 164.296 62.5716 165.129L27.5716 162.629C18.7716 162.229 13.9049 156.129 12.5716 153.129C5.77159 149.529 1.40492 154.629 0.0715883 157.629C-1.42846 171 21.0715 191.5 27.5716 194.5C34.7495 197.813 71.5716 204.129 79.0716 204.129C85.0716 204.129 83.9049 206.129 82.5716 207.129C76.9715 216.729 50.9049 216.796 38.5716 215.629C23.7716 215.629 25.0716 222.629 27.5716 226.129C46.0716 259.629 127.572 253.629 141.572 247.629C152.772 242.829 159.572 231.296 161.572 226.129C169.972 231.329 190.405 226.629 199.572 223.629C226.372 218.429 236.072 193.462 237.572 181.629C245.572 164.129 244.572 137.129 244.072 121.129C243.868 114.629 232.572 76.129 226.572 68.629C221.772 62.629 217.238 69.4624 215.572 73.629C212.772 83.229 203.738 97.9624 199.572 104.129C190.372 114.529 183.405 115.462 181.072 114.629C205.472 86.229 200.108 64.1658 195.572 53.129C182.572 21.5 161.072 20.129 157.072 20.129C153.872 20.129 154.425 34.629 154.572 34.629C154.719 34.629 154.619 37 154.572 37.129C152.972 41.529 147.905 49.629 145.572 53.129C140.372 61.529 135.738 62.2957 134.072 61.629C141.272 50.829 137.072 29.4624 134.072 20.129C132.072 8.62904 124.572 6.12904 122.072 2.62904C120.072 -0.170956 104.238 1.46238 96.5716 2.62904C88.5716 4.62904 90.5716 11.4624 92.5716 14.629C97.7716 21.429 99.0716 28.7957 99.0716 31.629C96.5716 45.129 92.5716 37.629 89.5716 37.129C87.1716 36.729 83.905 21.9624 82.5716 14.629C78.9716 2.62904 48.905 -0.0376242 42.0716 0.129042Z" fill="#61B379"/>
<path d="M96.5715 84.129C95.3715 81.729 87.4048 73.7957 83.5715 70.129C75.5715 70.129 100.238 103.796 113.572 120.629H111.072C105.872 116.229 74.9049 118.796 60.0715 120.629C50.8715 121.829 56.2382 125.796 60.0715 127.629C67.6715 136.429 101.571 131.296 117.571 127.629C121.071 130.129 130.071 155.629 132.071 158.629C133.671 161.029 135.405 167.629 136.071 170.629C130.071 168.229 110.905 168.629 102.071 169.129C88.0715 169.129 80.2382 173.796 78.0715 176.129C84.5196 189.025 129.347 177.811 135.92 176.167L136.071 176.129C142.071 174.629 143.571 180.129 140.571 182.129C137.571 184.129 109.571 216.629 104.571 219.129C100.571 221.129 99.5715 222.629 99.5715 223.129C100.771 226.729 110.405 224.629 115.071 223.129C120.571 222.129 121.071 220.129 132.071 209.629C140.871 201.229 143.405 191.796 143.571 188.129C143.571 190.129 154.071 221.129 157.571 225.629C160.371 229.229 161.071 227.129 161.071 225.629C159.571 203.129 153.571 187.129 153.071 183.629C152.671 180.829 153.571 180.462 154.071 180.629C164.471 183.429 176.071 181.462 180.571 180.129C186.072 179.129 197.571 165.629 197.571 163.129C197.571 160.629 201.071 153.629 197.571 153.629C194.771 153.629 187.071 159.962 183.571 163.129C180.771 165.129 173.738 167.962 170.571 169.129C165.771 168.729 155.571 173.629 151.071 176.129C147.471 154.129 134.238 129.962 128.071 120.629C152.071 104.629 155.571 90.129 158.571 84.129C160.971 79.329 157.571 79.4623 155.571 80.129L142.571 90.129C135.371 94.929 127.905 109.796 125.071 116.629L107.071 94.629C112.571 84.129 112.571 65.129 104.071 67.129C95.5715 69.129 98.0715 87.129 96.5715 84.129Z" fill="#A5D7A2"/>
</svg>
